<?xml version="1.0" standalone="no"?>
<!DOCTYPE svg PUBLIC "-//W3C//DTD SVG 20010904//EN"
 "http://www.w3.org/TR/2001/REC-SVG-20010904/DTD/svg10.dtd">
<svg version="1.0" xmlns="http://www.w3.org/2000/svg"
 width="1660.000000pt" height="1661.000000pt" viewBox="0 0 1660.000000 1661.000000"
 preserveAspectRatio="xMidYMid meet">

<g transform="translate(0.000000,1661.000000) scale(0.100000,-0.100000)"
fill="#000000" stroke="none">
<path d="M7277 13092 l-907 -907 2 -1198 3 -1198 1512 1497 1513 1497 -601
608 c-331 335 -604 609 -608 609 -3 0 -414 -408 -914 -908z"/>
<path d="M5133 10948 l-783 -783 0 -1852 0 -1853 31 -97 c122 -384 351 -818
579 -1098 249 -306 539 -527 871 -662 l77 -31 6 1712 c4 941 6 2551 4 3579
l-3 1867 -782 -782z"/>
<path d="M7279 10052 l-907 -897 -1 -2347 -1 -2346 108 -7 c104 -8 311 -2 405
11 l47 7 0 2151 c0 2082 1 2152 19 2192 28 62 1075 1115 1139 1146 62 29 132
29 193 0 63 -31 790 -763 872 -878 115 -164 195 -348 234 -541 24 -123 24
-386 0 -503 -41 -193 -121 -377 -227 -519 -77 -103 -240 -255 -344 -320 -203
-126 -548 -229 -676 -200 -172 38 -237 252 -112 371 52 50 84 64 182 77 222
32 431 145 560 304 62 76 143 237 167 332 25 103 23 334 -5 436 -25 92 -67
188 -118 266 -21 32 -169 190 -333 356 l-296 297 -402 -402 -403 -403 0 -2022
c0 -1437 3 -2023 11 -2023 18 0 230 104 304 150 259 159 486 395 718 747 58
87 190 300 295 474 372 618 537 856 816 1179 341 394 821 783 1279 1038 l105
59 -791 789 c-436 434 -1048 1044 -1362 1356 l-570 567 -906 -897z"/>
<path d="M11840 8151 c-714 -250 -1283 -602 -1780 -1100 -336 -337 -537 -610
-935 -1271 -420 -698 -620 -967 -898 -1206 -345 -296 -734 -470 -1222 -546
-171 -26 -568 -32 -725 -10 -437 62 -803 208 -1155 463 l-60 43 45 -54 c69
-85 374 -388 475 -471 545 -454 1090 -695 1745 -770 153 -18 594 -15 765 5
525 61 958 206 1265 424 131 93 272 236 353 358 65 98 139 241 153 298 6 27 2
25 -87 -40 -52 -37 -164 -120 -249 -185 -289 -217 -404 -280 -531 -287 -70 -4
-85 -2 -133 22 -62 31 -109 80 -140 145 -32 69 -28 225 8 346 62 207 190 460
361 715 547 814 1295 1325 2259 1540 156 35 418 76 546 85 47 3 95 8 108 11
l22 4 0 770 c0 610 -3 770 -12 769 -7 0 -87 -26 -178 -58z"/>
<path d="M11819 6190 c-973 -129 -1697 -537 -2244 -1265 -111 -148 -307 -460
-277 -441 6 3 59 43 119 88 132 100 299 211 373 248 244 123 448 83 542 -107
28 -57 33 -79 36 -159 7 -162 -35 -325 -144 -553 -190 -398 -483 -682 -929
-902 -447 -220 -911 -324 -1497 -336 -331 -7 -587 12 -845 62 -67 13 125 -49
262 -85 907 -236 1851 -138 2682 279 1147 574 1931 1675 2093 2939 11 84 20
175 20 202 0 59 13 57 -191 30z"/>
</g>
</svg>
